
<svg xmlns="http://www.w3.org/2000/svg" version="1.1" xmlns:xlink="http://www.w3.org/1999/xlink" preserveAspectRatio="none" x="0px" y="0px" width="48px" height="48px" viewBox="0 0 48 48">
<defs>
<g id="Layer0_0_FILL">
<path fill="#0066CC" stroke="none" d="
M 24.05 1.65
Q 14.75 1.65 8.2 8.2 1.7 14.7 1.7 24 1.7 33.25 8.2 39.8 14.75 46.35 24.05 46.35 33.3 46.35 39.85 39.8 46.35 33.25 46.35 24 46.35 14.7 39.85 8.2 33.3 1.65 24.05 1.65
M 34.8 13.35
Q 39.25 17.7 39.25 24.05 39.25 30.3 34.8 34.8 30.4 39.25 24.1 39.25 17.75 39.25 13.35 34.8 8.9 30.3 8.9 24.05 8.9 17.7 13.35 13.35 17.75 8.85 24.1 8.85 30.4 8.85 34.8 13.35 Z"/>

<path fill="#FFFFFF" stroke="none" d="
M 39.25 24.05
Q 39.25 17.7 34.8 13.35 30.4 8.85 24.1 8.85 17.75 8.85 13.35 13.35 8.9 17.7 8.9 24.05 8.9 30.3 13.35 34.8 17.75 39.25 24.1 39.25 30.4 39.25 34.8 34.8 39.25 30.3 39.25 24.05
M 32.65 15.5
Q 36.2 19.05 36.2 24.1 36.2 29.05 32.65 32.65 29.15 36.2 24.1 36.2 19.1 36.2 15.5 32.65 12 29.05 12 24.1 12 19.05 15.5 15.5 19.1 12 24.1 12 29.15 12 32.65 15.5 Z"/>

<path fill="#FFCC00" stroke="none" d="
M 36.2 24.1
Q 36.2 19.05 32.65 15.5 29.15 12 24.1 12 19.1 12 15.5 15.5 12 19.05 12 24.1 12 29.05 15.5 32.65 19.1 36.2 24.1 36.2 29.15 36.2 32.65 32.65 36.2 29.05 36.2 24.1 Z"/>
</g>
</defs>

<g transform="matrix( 1, 0, 0, 1, 0,0) ">
<use xlink:href="#Layer0_0_FILL"/>
</g>
</svg>
