<?xml version="1.0" encoding="utf-8"?>
<!-- Generator: Adobe Illustrator 21.1.0, SVG Export Plug-In . SVG Version: 6.00 Build 0)  -->
<svg version="1.1" id="Layer_1" xmlns="http://www.w3.org/2000/svg" xmlns:xlink="http://www.w3.org/1999/xlink" x="0px" y="0px"
	 viewBox="0 0 48 48" style="enable-background:new 0 0 48 48;" xml:space="preserve">
<style type="text/css">
	.st0{fill:#3688D8;}
	.st1{fill:#0066CC;}
	.st2{fill:#FFFFFF;}
</style>
<path class="st0" d="M34.8,7.9c-3-3-6.5-4.5-10.8-4.5c-4.3,0-7.8,1.5-10.8,4.5c-2.6,2.6-4,5.6-4.3,9.2h30.2
	C38.8,13.5,37.4,10.4,34.8,7.9z"/>
<path class="st1" d="M39.2,17H8.9c0,0,0,0.1,0,0.1c0,0,0,0,0,0c0,0,0,0,0,0c-0.1,0.5-0.1,1-0.1,1.5c0,2.2,0.4,4.2,1.2,6
	c0.4,0.9,0.9,1.8,1.5,2.6l12.5,16.7l12.7-16.8c0.5-0.7,1-1.6,1.3-2.5c0.8-1.8,1.2-3.9,1.2-6C39.2,18.1,39.2,17.6,39.2,17
	C39.2,17.1,39.2,17,39.2,17z"/>
<path class="st2" d="M41.3,17C41.3,16.9,41.3,16.9,41.3,17C41.3,16.9,41.3,16.9,41.3,17L41.3,17C41.3,16.9,41.3,16.9,41.3,17
	c-0.4-4.1-2.1-7.7-5-10.6C33,3,28.8,1.2,24.1,1.2c-4.8,0-8.9,1.7-12.3,5.1c-2.9,2.9-4.6,6.5-4.9,10.5c-0.1,0.6-0.1,1.1-0.1,1.7
	c0,2.5,0.5,4.8,1.4,6.8c0.4,1.1,1,2.1,1.7,3.1l13.4,17.8c0.2,0.3,0.5,0.4,0.8,0.4c0,0,0,0,0,0c0.3,0,0.6-0.2,0.8-0.4l12.8-16.9
	l0.7-1.1c0.6-0.9,1.1-1.8,1.5-2.8c0.9-2.1,1.4-4.4,1.4-6.9C41.4,18.1,41.3,17.5,41.3,17z M38,24.7c-0.4,0.9-0.8,1.7-1.3,2.5
	L24.1,43.9L11.5,27.2c-0.6-0.8-1.1-1.7-1.5-2.6c-0.8-1.8-1.2-3.8-1.2-6c0-0.5,0-1,0.1-1.5c0,0,0,0,0,0c0,0,0,0,0,0c0,0,0-0.1,0-0.1
	c0.3-3.5,1.8-6.6,4.3-9.2c3-3,6.6-4.5,10.8-4.5c4.3,0,7.8,1.5,10.8,4.5c2.6,2.6,4,5.6,4.4,9.2c0,0,0,0.1,0,0.1c0,0.5,0,1,0,1.5
	C39.2,20.8,38.8,22.8,38,24.7z"/>
</svg>
