<?xml version="1.0" encoding="utf-8"?>
<!-- Generator: Adobe Illustrator 21.1.0, SVG Export Plug-In . SVG Version: 6.00 Build 0)  -->
<svg version="1.1" id="Layer_1" xmlns="http://www.w3.org/2000/svg" xmlns:xlink="http://www.w3.org/1999/xlink" x="0px" y="0px"
	 viewBox="0 0 48 48" style="enable-background:new 0 0 48 48;" xml:space="preserve">
<style type="text/css">
	.st0{fill:#FFFFFF;}
	.st1{fill:#0066CC;fill-opacity:0.6;}
	.st2{fill:#FFCC00;}
</style>
<g>
	<path class="st0" d="M23.8,8.8c-4.2,0-7.8,1.5-10.8,4.5c-3,2.9-4.4,6.5-4.4,10.7c0,4.2,1.5,7.8,4.4,10.8c2.9,3,6.5,4.5,10.8,4.5
		c4.2,0,7.8-1.5,10.7-4.5c3-3,4.5-6.6,4.5-10.8c0-4.2-1.5-7.8-4.5-10.7C31.6,10.3,28,8.8,23.8,8.8z M36.1,24
		C36.1,24,36.1,24.1,36.1,24c0,1.7-0.3,3.3-0.9,4.7c-0.6,1.4-1.5,2.6-2.7,3.8c-1.8,1.8-3.8,2.9-6.1,3.4L24,36.1c0,0-0.1,0-0.2,0
		l-2.3-0.2c-2.3-0.5-4.3-1.6-6.1-3.4c-2.3-2.4-3.5-5.3-3.5-8.5c0-3.4,1.2-6.2,3.5-8.6c0.4-0.3,0.7-0.7,1.1-1l0.3-0.3
		c0.4-0.2,0.7-0.5,1.1-0.7c1.1-0.7,2.3-1.1,3.5-1.3l2.3-0.3c0.1,0,0.1,0,0.2,0l2.4,0.3c2.3,0.4,4.4,1.5,6.1,3.3
		c1.2,1.2,2.1,2.5,2.7,4C35.8,20.8,36.1,22.3,36.1,24z"/>
	<path class="st1" d="M23.8,1.7C17.6,1.7,12.3,3.8,8,8.2C3.6,12.5,1.5,17.8,1.5,24c0,6.2,2.2,11.4,6.5,15.8
		c4.4,4.4,9.6,6.5,15.8,6.5c6.2,0,11.4-2.2,15.8-6.5c4.3-4.4,6.5-9.6,6.5-15.8c0-6.2-2.2-11.5-6.5-15.8C35.2,3.8,30,1.7,23.8,1.7z
		 M34.5,34.8c-2.9,3-6.5,4.5-10.7,4.5c-4.2,0-7.8-1.5-10.8-4.5c-3-3-4.4-6.6-4.4-10.8c0-4.2,1.5-7.8,4.4-10.7
		c2.9-3,6.5-4.5,10.8-4.5c4.2,0,7.8,1.5,10.7,4.5c3,2.9,4.5,6.5,4.5,10.7C39,28.2,37.5,31.8,34.5,34.8z"/>
	<path class="st2" d="M26.4,12.2L24,11.9c0,0-0.1,0-0.2,0l-2.3,0.3c-1.3,0.2-2.5,0.7-3.5,1.3c-0.4,0.2-0.7,0.4-1.1,0.7l-0.3,0.3
		c-0.4,0.3-0.7,0.6-1.1,1c-2.3,2.4-3.5,5.2-3.5,8.6c0,3.3,1.2,6.2,3.5,8.5c1.8,1.7,3.8,2.9,6.1,3.4l2.3,0.2c0.1,0,0.1,0,0.2,0
		l2.4-0.2c2.3-0.4,4.4-1.6,6.1-3.4c1.2-1.2,2-2.5,2.7-3.8c0.6-1.4,0.9-3,0.9-4.6c0,0,0-0.1,0-0.1c0-1.7-0.3-3.2-0.8-4.6
		c-0.6-1.5-1.5-2.8-2.7-4C30.8,13.6,28.7,12.5,26.4,12.2z M27,19.3c0.3-0.3,0.7-0.4,1.1-0.4c0.4,0,0.8,0.1,1.1,0.4
		c0.3,0.3,0.5,0.7,0.5,1.1c0,0.4-0.2,0.8-0.5,1S28.6,22,28.2,22c-0.4,0-0.8-0.2-1.1-0.5c-0.3-0.3-0.4-0.7-0.4-1
		C26.7,20,26.8,19.7,27,19.3z M18.7,19.3c0.3-0.3,0.7-0.4,1.1-0.4c0.4,0,0.8,0.1,1,0.4c0.3,0.3,0.5,0.7,0.5,1.1c0,0.4-0.2,0.8-0.5,1
		s-0.6,0.5-1,0.5c-0.4,0-0.8-0.2-1.1-0.5c-0.3-0.3-0.5-0.7-0.5-1C18.2,20,18.3,19.7,18.7,19.3z M30.7,27.6C28.9,29.8,26.6,31,24,31
		c-2.6,0-4.9-1.1-6.8-3.3c-0.4-0.4-0.3-1,0.1-1.4c0.4-0.4,1-0.3,1.4,0.1C20.3,28.1,22,29,24,29c2,0,3.7-0.8,5.2-2.6
		c0.4-0.4,1-0.5,1.4-0.1C31,26.6,31.1,27.2,30.7,27.6z"/>
	<path d="M19.8,22c0.4,0,0.8-0.2,1-0.5s0.5-0.7,0.5-1c0-0.4-0.2-0.8-0.5-1.1c-0.3-0.3-0.6-0.4-1-0.4c-0.4,0-0.8,0.1-1.1,0.4
		c-0.3,0.3-0.5,0.7-0.5,1.1c0,0.4,0.1,0.8,0.5,1C19,21.8,19.3,22,19.8,22z"/>
	<path d="M28.2,22c0.4,0,0.8-0.2,1.1-0.5s0.5-0.7,0.5-1c0-0.4-0.2-0.8-0.5-1.1c-0.3-0.3-0.7-0.4-1.1-0.4c-0.4,0-0.8,0.1-1.1,0.4
		c-0.3,0.3-0.4,0.7-0.4,1.1c0,0.4,0.1,0.8,0.4,1C27.4,21.8,27.8,22,28.2,22z"/>
	<path d="M29.2,26.4C27.7,28.1,26,29,24,29c-2,0-3.7-0.9-5.2-2.6c-0.4-0.4-1-0.5-1.4-0.1c-0.4,0.4-0.5,1-0.1,1.4
		c1.9,2.2,4.2,3.3,6.8,3.3c2.6,0,4.9-1.1,6.7-3.3c0.4-0.4,0.3-1.1-0.1-1.4C30.2,25.9,29.5,25.9,29.2,26.4z"/>
</g>
</svg>
